<svg width="32" height="32" viewBox="0 0 32 32" fill="none" xmlns="http://www.w3.org/2000/svg">
<path d="M7.84535 24.8709C7.44539 24.6033 7.10116 24.2632 6.69854 23.7824C6.55298 23.6085 5.96378 22.8697 6.07748 23.0109C5.46044 22.2442 5.07062 21.8892 4.66875 21.745C3.9756 21.4965 3.6152 20.733 3.86379 20.04C4.11238 19.3468 4.8758 18.9864 5.56896 19.2349C6.57248 19.5949 7.2513 20.2146 8.16567 21.3522C8.04034 21.1964 8.61819 21.9212 8.74308 22.0704C8.99712 22.3737 9.1831 22.5574 9.32839 22.6546C9.60158 22.8376 10.1127 22.9164 10.8628 22.8413C10.8942 22.3317 10.9885 21.8376 11.1323 21.3809C7.17463 20.4137 4.93488 17.8601 4.93488 12.8528C4.93488 11.201 5.4272 9.71175 6.34556 8.46357C6.05534 7.27173 6.09911 5.83029 6.7479 4.20832C6.89667 3.83636 7.20482 3.55101 7.58708 3.4312C7.69656 3.39948 7.75722 3.38537 7.86504 3.36881C8.93556 3.20441 10.4476 3.59591 12.4193 4.83099C13.5747 4.55823 14.7847 4.41984 16.0016 4.41984C17.2172 4.41984 18.4261 4.55797 19.5805 4.8302C21.5492 3.58651 23.0648 3.19516 24.1429 3.36852C24.2559 3.38668 24.3527 3.41028 24.4332 3.43672C24.8079 3.55972 25.1088 3.84223 25.2552 4.20832C25.9039 5.82992 25.9477 7.27109 25.6577 8.46277C26.5789 9.711 27.0683 11.1893 27.0683 12.8528C27.0683 17.8622 24.836 20.4062 20.8784 21.3758C21.0449 21.9292 21.1328 22.5472 21.1328 23.216C21.1328 24.1018 21.1295 24.9478 21.1232 25.8965C21.1216 26.1501 21.1196 26.421 21.1167 26.8373C21.6172 26.9477 22.0305 27.3434 22.1375 27.8784C22.2819 28.6004 21.8136 29.3029 21.0915 29.4473C19.5725 29.751 18.4471 28.7382 18.4471 27.4146C18.4471 27.2942 18.448 27.1221 18.45 26.8192C18.4531 26.4018 18.4549 26.1318 18.4567 25.879C18.4628 24.9357 18.4661 24.0953 18.4661 23.216C18.4661 22.2862 18.2219 21.6801 17.8983 21.4012C17.0169 20.6414 17.4636 19.1962 18.62 19.0664C22.5752 18.622 24.4016 17.0901 24.4016 12.8528C24.4016 11.5799 23.9857 10.5275 23.1841 9.64729C22.8401 9.26961 22.7423 8.72863 22.932 8.25433C23.1529 7.70201 23.2472 6.97829 23.0588 6.10253L23.0463 6.10608C22.3904 6.29165 21.5659 6.69291 20.5681 7.37117C20.2427 7.59235 19.8363 7.65852 19.4576 7.55201C18.3639 7.24441 17.1884 7.08651 16.0016 7.08651C14.8147 7.08651 13.6392 7.24441 12.5455 7.55201C12.1688 7.65796 11.7646 7.59307 11.44 7.37452C10.4365 6.69903 9.60747 6.29823 8.94772 6.11152C8.75647 6.98245 8.85086 7.7036 9.07115 8.25433C9.26087 8.72863 9.16292 9.26961 8.81898 9.64729C8.02287 10.5214 7.60155 11.5915 7.60155 12.8528C7.60155 17.082 9.42967 18.6242 13.364 19.0664C14.5177 19.196 14.9661 20.6357 14.09 21.3974C13.8335 21.6206 13.5179 22.3734 13.5179 23.216V27.4146C13.5179 28.7297 12.4047 29.7157 10.905 29.4532C10.1797 29.3262 9.69458 28.6353 9.82151 27.91C9.9177 27.3604 10.3377 26.9486 10.8512 26.8366V25.5173C9.63772 25.599 8.63542 25.3996 7.84535 24.8709Z" fill="#F7F7F7"/>
</svg>
