<svg width="32" height="32" viewBox="0 0 32 32" fill="none" xmlns="http://www.w3.org/2000/svg">
<path d="M10.6667 9.33317C6.98477 9.33317 4 12.3179 4 15.9998C4 19.6817 6.98477 22.6665 10.6667 22.6665C14.3485 22.6665 17.3333 19.6817 17.3333 15.9998C17.3333 12.3179 14.3485 9.33317 10.6667 9.33317ZM10.6667 6.6665C13.888 6.6665 16.7281 8.29848 18.4055 10.7807C18.4204 10.7501 18.4353 10.7197 18.4504 10.6895C19.1245 9.34134 20.3024 7.99984 22 7.99984C23.5748 7.99984 24.7024 9.15433 25.3955 10.3976C25.4473 10.3298 25.5012 10.2642 25.5572 10.2011C25.9417 9.76725 26.5389 9.33317 27.3333 9.33317C28.1277 9.33317 28.7249 9.76725 29.1095 10.2011C29.4955 10.6365 29.7823 11.1904 29.996 11.7604C30.4272 12.9104 30.6667 14.4096 30.6667 15.9998C30.6667 17.5901 30.4272 19.0893 29.996 20.2393C29.7823 20.8093 29.4955 21.3632 29.1095 21.7986C28.7249 22.2324 28.1277 22.6665 27.3333 22.6665C26.5389 22.6665 25.9417 22.2324 25.5572 21.7986C25.5012 21.7354 25.4473 21.6698 25.3955 21.602C24.7024 22.8453 23.5748 23.9998 22 23.9998C20.3024 23.9998 19.1245 22.6584 18.4504 21.3101C18.4353 21.28 18.4204 21.2496 18.4055 21.2189C16.7281 23.7012 13.888 25.3332 10.6667 25.3332C5.51201 25.3332 1.33333 21.1545 1.33333 15.9998C1.33333 10.8452 5.51201 6.6665 10.6667 6.6665ZM26.6667 15.9998C26.6667 17.2173 26.7729 18.5777 27.3333 19.6854C27.8937 18.5777 28 17.2173 28 15.9998C28 14.7824 27.8937 13.422 27.3333 12.3143C26.7729 13.422 26.6667 14.7824 26.6667 15.9998ZM24 15.9998C24 14.9866 23.7157 10.6665 22 10.6665C20.2843 10.6665 20 14.9866 20 15.9998C20 17.013 20.2843 21.3332 22 21.3332C23.7157 21.3332 24 17.013 24 15.9998Z" fill="#F7F7F7"/>
</svg>
